<?xml version="1.0" encoding="UTF-8" standalone="no"?>
<!-- Created with Inkscape (http://www.inkscape.org/) -->

<svg
   width="100mm"
   height="150mm"
   viewBox="0 0 100 150"
   version="1.1"
   id="svg1"
   xml:space="preserve"
   inkscape:version="1.4 (e7c3feb100, 2024-10-09)"
   sodipodi:docname="logo.svg"
   xmlns:inkscape="http://www.inkscape.org/namespaces/inkscape"
   xmlns:sodipodi="http://sodipodi.sourceforge.net/DTD/sodipodi-0.dtd"
   xmlns="http://www.w3.org/2000/svg"
   xmlns:svg="http://www.w3.org/2000/svg"><sodipodi:namedview
     id="namedview1"
     pagecolor="#ffffff"
     bordercolor="#000000"
     borderopacity="0.25"
     inkscape:showpageshadow="2"
     inkscape:pageopacity="0.0"
     inkscape:pagecheckerboard="0"
     inkscape:deskcolor="#d1d1d1"
     inkscape:document-units="mm"
     inkscape:zoom="0.72248176"
     inkscape:cx="405.54657"
     inkscape:cy="177.85916"
     inkscape:window-width="1290"
     inkscape:window-height="1080"
     inkscape:window-x="0"
     inkscape:window-y="0"
     inkscape:window-maximized="0"
     inkscape:current-layer="layer1" /><defs
     id="defs1" /><g
     inkscape:label="Layer 1"
     inkscape:groupmode="layer"
     id="layer1"><path
       style="fill:#e65800;fill-opacity:1;stroke-width:0.997047"
       d="M 62.598037,148.34872 C 55.629517,142.39937 42.553859,133.50798 33.832978,128.78863 24.662793,123.82611 16.630949,120.67296 5.7869335,117.77825 l -4.91821911,-1.31285 0.0830614,-0.76435 c 0.0456887,-0.42038 0.70221731,-2.16036 1.45896641,-3.8666 2.5069091,-5.65235 3.601363,-9.56998 5.1931289,-18.589034 0.5032016,-2.851182 0.9457261,-5.215964 0.9833924,-5.255073 0.092747,-0.09633 8.0034525,5.029476 11.0059705,7.13144 11.718195,8.203477 24.566368,20.491087 33.064969,31.622327 4.643094,6.08141 8.98117,13.7184 11.338373,19.96072 0.935766,2.47809 1.118512,3.29517 0.736997,3.29517 -0.110759,0 -1.071757,-0.74308 -2.135539,-1.65128 z m -3.082821,-20.26461 c -1.68104,-2.76449 -4.534312,-8.58931 -5.660367,-11.5554 -0.894372,-2.35581 -1.862561,-5.41688 -1.862561,-5.88877 0,-0.44459 1.20848,0.007 4.531572,1.69521 2.554066,1.29715 3.901843,2.14936 4.479114,2.83223 0.790551,0.93514 0.825752,1.07465 0.825752,3.27268 0,2.03926 -0.912873,11.09001 -1.142627,11.32864 -0.0494,0.0513 -0.576285,-0.70677 -1.170883,-1.68459 z m 15.714466,-14.79574 c -3.935007,-0.63628 -5.8942,-1.28184 -5.8942,-1.94217 0,-0.22687 0.281029,-0.79516 0.624516,-1.26289 0.343497,-0.46772 0.760369,-1.37435 0.926404,-2.01474 0.695466,-2.68246 1.046545,-20.972231 0.492998,-25.683239 -0.720541,-6.132199 -3.562337,-11.303922 -8.28549,-15.078605 -1.923297,-1.537068 -4.887983,-3.169093 -6.752647,-3.717253 -0.81138,-0.238521 -1.540668,-0.543628 -1.620638,-0.67802 -0.07993,-0.1344 0.351421,-1.251876 0.95866,-2.483289 l 1.104052,-2.238946 6.98792,0.01493 c 4.549379,0.01016 7.349243,0.125134 8.023332,0.330733 0.569475,0.173684 1.676079,0.864445 2.459107,1.535016 2.042157,1.748876 3.760736,2.355799 6.34191,2.239678 2.612366,-0.117534 4.185983,-0.861884 5.446344,-2.576253 1.924373,-2.61756 1.794155,-4.493134 -0.480837,-6.925569 -0.737856,-0.788916 -1.691008,-1.525007 -2.118114,-1.635742 -0.427106,-0.110735 -2.664637,-0.05376 -4.972278,0.126709 -7.042228,0.550619 -15.891957,1.098424 -17.843236,1.104531 l -1.848375,0.0061 -0.133202,-7.863732 c -0.07905,-4.66733 -0.25795,-8.387856 -0.440107,-9.153179 -0.168804,-0.709204 -1.417827,-3.612736 -2.775612,-6.452294 -2.352575,-4.919991 -2.572625,-5.273273 -4.678216,-7.510501 -3.616156,-3.842225 -9.862042,-7.419041 -15.562119,-8.911929 -8.091015,-2.119086 -16.292365,-1.394376 -24.270009,2.14461 -1.4679757,0.651215 -2.8113499,1.184032 -2.9852603,1.184032 -0.4434247,0 1.8814734,-2.420708 4.1942593,-4.367116 7.628864,-6.4203275 17.650385,-10.0579378 30.952685,-11.23518183 5.322105,-0.47100731 17.361011,-0.2190122 19.264908,0.40325314 1.713011,0.55986609 7.285865,2.69465079 8.515809,3.26212759 2.49382,1.1506218 4.089949,3.4629919 5.492533,7.9572541 0.946841,3.03393 2.919094,7.042572 4.612902,9.375834 2.842099,3.915068 6.877699,7.21339 10.356251,8.464231 4.121744,1.482127 4.076359,1.426038 4.977494,6.150844 0.772833,4.052113 0.55235,7.8308 -0.801041,13.728877 -0.576802,2.513702 -1.186076,5.538771 -1.35394,6.722355 -0.289385,2.040317 -0.268723,2.284458 0.398186,4.704801 0.386867,1.404049 1.684788,5.274877 2.884245,8.601842 1.199476,3.326966 2.30232,6.632339 2.450766,7.345281 0.515958,2.477956 -0.4987,3.335888 -5.564795,4.705257 l -2.847392,0.769662 -0.07181,3.806031 c -0.03952,2.093317 -0.09774,3.809191 -0.129425,3.813052 -0.0317,0.0041 -1.804869,0.120093 -3.940408,0.258295 -5.780604,0.37411 -7.37733,1.022622 -7.37733,2.996303 0,1.714796 0.503661,1.886052 6.24517,2.123465 2.882799,0.1192 5.04944,0.323376 5.210876,0.491045 0.195884,0.203435 -0.02886,0.630912 -0.771962,1.468177 -0.576567,0.649639 -1.194813,1.465494 -1.373878,1.812992 -0.189252,0.367253 -0.405583,2.325801 -0.516655,4.677261 -0.220793,4.67463 -0.476649,5.52802 -2.086514,6.9592 -2.945871,2.61888 -6.137063,3.30238 -11.425826,2.44719 z M 42.414709,107.75162 C 35.687968,101.04103 25.571557,92.842843 14.709813,85.299989 L 8.2460406,80.811277 v -4.225461 -4.22545 l 3.8626694,1.859195 c 4.878982,2.348372 6.686385,2.824887 12.117673,3.194761 2.386817,0.162546 4.837744,0.425068 5.4465,0.583388 1.285661,0.334361 2.128827,1.291353 2.128827,2.416206 0,1.408491 1.53967,4.972484 7.661188,17.733922 3.324424,6.930382 6.018353,12.594572 5.986518,12.587082 -0.03179,-0.007 -1.397458,-1.34998 -3.034707,-2.9833 z m 18.378606,-0.18439 C 50.111803,102.39483 44.017697,97.437711 40.907649,91.391657 39.172085,88.017645 38.493291,85.020387 38.130873,79.130632 l -0.167189,-2.717006 2.160801,-1.289015 c 2.922264,-1.743258 4.975583,-3.286007 7.71255,-5.79475 l 2.299354,-2.107625 3.481085,0.894736 c 2.024155,0.520268 4.010516,1.212482 4.746045,1.653921 0.69572,0.41755 2.313305,1.854917 3.594632,3.19415 3.553004,3.713564 4.325553,5.673436 4.819089,12.225441 0.413917,5.495129 0.170368,19.056316 -0.374022,20.825586 -0.34514,1.12172 -1.775205,3.1209 -2.230879,3.11871 -0.07885,-3.9e-4 -1.599406,-0.70579 -3.379024,-1.56755 z M 23.000693,71.610701 C 18.524427,70.781454 17.758912,70.543288 15.114399,69.157173 9.7971864,66.370158 4.9352752,61.371479 2.3546284,56.03846 1.2841242,53.826227 0.77690267,51.962521 0.3424944,48.645208 -0.53696066,41.929325 0.25693821,36.628984 2.9599299,31.170241 8.6562309,19.666482 22.337796,13.745552 34.225754,17.639425 c 4.322363,1.415786 7.745423,3.602107 11.043588,7.053587 4.019145,4.205982 6.431282,8.920068 7.607408,14.867315 0.521976,2.639415 0.519961,5.362019 -0.0059,8.567021 -1.138332,6.932122 -3.444202,11.393207 -8.377815,16.208254 -3.735621,3.645841 -7.720622,5.806476 -12.455367,6.753194 -2.14862,0.429622 -7.779274,0.754818 -9.036544,0.521905 z m 9.577579,-6.017654 c 5.471595,-1.638405 10.763213,-6.158282 13.074503,-11.16766 1.614091,-3.498333 2.030151,-5.488942 2.050961,-9.812863 0.03385,-7.033783 -1.874781,-12.143563 -6.186667,-16.562866 -2.265121,-2.321535 -4.640609,-3.822359 -7.903377,-4.993293 -2.411432,-0.86541 -2.546942,-0.882623 -6.989045,-0.887491 -4.033274,-0.0041 -4.742797,0.06412 -6.471346,0.624634 C 13.172209,25.05749 7.5345594,31.283172 5.6294005,38.832335 4.8757722,41.8186 4.8802629,46.583827 5.639575,49.586166 7.7808083,58.0531 13.941041,64.2478 21.965331,66.003221 c 2.517201,0.55068 8.128387,0.333812 10.61299,-0.410174 z m -9.175773,-4.21856 C 19.884677,60.591452 16.231598,58.584962 13.870532,56.138973 10.926137,53.088654 9.6388312,48.738894 9.8625786,42.596177 c 0.1787624,-4.90797 1.1643274,-7.089973 4.9972444,-11.063835 3.31599,-3.437924 6.973882,-5.030249 11.505963,-5.008718 3.359233,0.01595 6.949296,1.17381 9.751548,3.145011 2.607531,1.83422 5.692505,5.873397 6.697313,8.768851 0.623782,1.797487 0.768215,5.878731 0.304148,8.594648 -0.526467,3.081118 -1.287404,5.059493 -2.883347,7.496469 -3.674778,5.611341 -10.290888,8.30208 -16.832949,6.845884 z m 5.62408,-3.718787 c 6.367885,-1.722641 10.522394,-7.187561 10.536913,-13.860443 0.01634,-7.510531 -5.539708,-13.162711 -12.938845,-13.162711 -3.612116,0 -6.419308,1.144058 -9.0887,3.704044 -2.819148,2.703603 -4.140959,5.747572 -4.170524,9.604134 -0.01947,2.533607 0.502056,4.625501 1.789909,7.180214 1.179443,2.339663 2.933516,4.015359 5.587793,5.338131 3.200124,1.594803 5.554393,1.934905 8.283454,1.196631 z m -5.688856,-4.989361 c -1.917868,-0.788644 -3.77992,-2.632211 -4.771482,-4.724106 -2.100935,-4.43235 -0.279738,-9.740983 4.112147,-11.986564 1.502727,-0.768351 1.969338,-0.877583 3.675041,-0.86033 3.712777,0.03759 6.511154,1.821173 8.092022,5.15765 0.739648,1.561038 0.849075,2.059653 0.837658,3.816892 -0.01712,2.632252 -0.935796,4.847044 -2.736047,6.595972 -1.736658,1.687148 -3.25951,2.332296 -5.79299,2.454159 -1.643648,0.07905 -2.348388,-0.01453 -3.416349,-0.453673 z m 54.891808,5.37471 c -0.589492,-0.303065 -1.288402,-0.799912 -1.553122,-1.104104 -0.473606,-0.544229 -0.466817,-0.565658 0.42468,-1.33969 1.081119,-0.938671 2.544125,-1.443637 3.477592,-1.200309 0.372417,0.09704 1.143293,0.613933 1.713081,1.148569 1.004074,0.942137 1.021792,0.988319 0.575892,1.500438 -0.611651,0.702456 -2.234919,1.546589 -2.973578,1.546325 -0.326005,-1.11e-4 -1.075054,-0.248175 -1.664545,-0.551229 z M 90.690894,24.115954 c -2.671398,-1.406499 -6.537891,-5.922587 -7.903464,-9.231313 -0.539498,-1.307184 -0.683784,-3.071282 -0.2512,-3.071282 0.49695,0 4.232218,3.923655 6.361007,6.681823 1.395276,1.807791 2.385173,3.39788 2.823854,4.535973 0.371506,0.963821 0.641138,1.786178 0.599196,1.827462 -0.04197,0.04126 -0.775171,-0.292923 -1.629393,-0.742663 z"
       id="path1" /></g></svg>
